# xmcd
#
# Track frame offsets: 
#        150
#        17071
#        35075
#        55173
#        72041
#        88858
#        110288
#        125586
#        144307
#        160910
#        179846
#        198036
#
# Disc length: 2902 seconds
#
# Revision: 3
# Processed by: cddbd v1.5.2PL0 Copyright (c) Steve Scherf et al.
# Submitted via: ExactAudioCopy v0.99pb5
#
DISCID=a50b540c
DTITLE=Ryan Leslie - Ryan Leslie
DYEAR=2008
DGENRE=R&B
TTITLE0=Diamond Girl
TTITLE1=Addiction (feat. Cassie and Fabolous)
TTITLE2=You're Fly 
TTITLE3=Quicksand
TTITLE4=Valentine
TTITLE5=Just Right
TTITLE6=How It Was Supposed to Be
TTITLE7=I-R-I-N-A
TTITLE8=Out of the Blue 
TTITLE9=Shouldn't Have to Wait 
TTITLE10=Wana Be Good
TTITLE11=Gibberish 
EXTD=YEAR: 2008
EXTT0=
EXTT1=
EXTT2=
EXTT3=
EXTT4=
EXTT5=
EXTT6=
EXTT7=
EXTT8=
EXTT9=
EXTT10=
EXTT11=
PLAYORDER=
